<?xml version="1.0" encoding="UTF-8" standalone="no"?>
<!-- Created with Inkscape (http://www.inkscape.org/) -->

<svg
   xmlns:dc="http://purl.org/dc/elements/1.1/"
   xmlns:cc="http://creativecommons.org/ns#"
   xmlns:rdf="http://www.w3.org/1999/02/22-rdf-syntax-ns#"
   xmlns:svg="http://www.w3.org/2000/svg"
   xmlns="http://www.w3.org/2000/svg"
   xmlns:sodipodi="http://sodipodi.sourceforge.net/DTD/sodipodi-0.dtd"
   xmlns:inkscape="http://www.inkscape.org/namespaces/inkscape"
   width="264.21835"
   height="205.76945"
   id="svg2"
   version="1.1"
   inkscape:version="0.48.5 r10040"
   sodipodi:docname="cdn.svg"
   inkscape:export-filename="/home/tom/tmp/deliverous/blog/content/images/2015-03-12.volumes-uploads-cdn.jpg.png"
   inkscape:export-xdpi="120"
   inkscape:export-ydpi="120">
  <defs
     id="defs4" />
  <sodipodi:namedview
     id="base"
     pagecolor="#ffffff"
     bordercolor="#666666"
     borderopacity="1.0"
     inkscape:pageopacity="0.0"
     inkscape:pageshadow="2"
     inkscape:zoom="0.98994949"
     inkscape:cx="43.801513"
     inkscape:cy="157.59518"
     inkscape:document-units="px"
     inkscape:current-layer="layer1"
     showgrid="false"
     fit-margin-top="0"
     fit-margin-left="0"
     fit-margin-right="0"
     fit-margin-bottom="0"
     inkscape:window-width="1366"
     inkscape:window-height="718"
     inkscape:window-x="0"
     inkscape:window-y="331"
     inkscape:window-maximized="1" />
  <metadata
     id="metadata7">
    <rdf:RDF>
      <cc:Work
         rdf:about="">
        <dc:format>image/svg+xml</dc:format>
        <dc:type
           rdf:resource="http://purl.org/dc/dcmitype/StillImage" />
        <dc:title></dc:title>
      </cc:Work>
    </rdf:RDF>
  </metadata>
  <g
     inkscape:label="Calque 1"
     inkscape:groupmode="layer"
     id="layer1"
     transform="translate(-105.49748,-79.38188)">
    <path
       id="path3303"
       d="m 148.83997,146.61559 q 0,3.69397 -2.24716,5.83339 -2.24716,2.13942 -5.97191,2.13942 h -26.90436 q -3.72474,0 -5.9719,-2.13942 -2.24716,-2.13942 -2.24716,-5.83339 0,-1.63149 0.10774,-3.18604 0.10774,-1.55454 0.43096,-3.35535 0.32322,-1.8008 0.81575,-3.33996 0.49253,-1.53915 1.32367,-3.00134 0.83114,-1.46219 1.90855,-2.49342 1.0774,-1.03123 2.63195,-1.6469 1.55454,-0.61565 3.4323,-0.61565 0.27705,0 1.29289,0.66183 1.01584,0.66184 2.29333,1.47758 1.2775,0.81576 3.32457,1.47759 2.04707,0.66183 4.10954,0.66183 2.06246,0 4.10953,-0.66183 2.04707,-0.66183 3.32457,-1.47759 1.27749,-0.81574 2.29332,-1.47758 1.01585,-0.66183 1.29289,-0.66183 1.87777,0 3.43231,0.61565 1.55454,0.61567 2.63195,1.6469 1.07741,1.03123 1.90855,2.49342 0.83113,1.46219 1.32367,3.00134 0.49252,1.53916 0.81575,3.33996 0.32322,1.80081 0.43096,3.35535 0.10774,1.55455 0.10774,3.18604 z m -9.85057,-27.48923 q 0,4.8945 -3.46309,8.35759 -3.46309,3.46309 -8.35758,3.46309 -4.89451,0 -8.3576,-3.46309 -3.46309,-3.46309 -3.46309,-8.35759 0,-4.89451 3.46309,-8.3576 3.46309,-3.46309 8.3576,-3.46309 4.89449,0 8.35758,3.46309 3.46309,3.46309 3.46309,8.3576 z"
       inkscape:connector-curvature="0" />
    <path
       id="path3383"
       d="m 240.1053,115.74737 c 0,0.55695 -0.20349,1.03892 -0.61049,1.44592 l -8.22571,8.22571 c -0.407,0.407 -0.88897,0.6105 -1.44592,0.6105 -0.55695,0 -1.03892,-0.2035 -1.44592,-0.6105 -0.40701,-0.40701 -0.36694,-0.94507 -0.61051,-1.44594 l 0,-4.11284 -40.90279,0 0,4.11284 c 0,0.55695 -0.2035,1.03893 -0.61051,1.44594 -0.407,0.407 -0.88898,0.6105 -1.44593,0.6105 -0.55695,0 -1.03892,-0.2035 -1.44592,-0.6105 l -8.22569,-8.22571 c -0.407,-0.407 -0.61051,-0.88897 -0.61051,-1.44592 0,-0.55695 0.2035,-1.03893 0.61051,-1.44592 l 8.22569,-8.22571 c 0.407,-0.407 0.88897,-0.6105 1.44592,-0.6105 0.55695,0 1.03893,0.2035 1.44593,0.6105 0.40701,0.40701 0.36695,0.94506 0.61051,1.44592 l 0,4.11287 40.90279,0 0,-4.11287 c 0,-0.55694 0.2035,-1.03891 0.61051,-1.44592 0.407,-0.407 0.88897,-0.6105 1.44592,-0.6105 0.55695,0 1.03892,0.2035 1.44592,0.6105 l 8.22571,8.22571 c 0.40699,0.40699 0.61049,0.88897 0.61049,1.44592 z"
       inkscape:connector-curvature="0"
       sodipodi:nodetypes="ssssssccsssssscssssccssssss" />
    <text
       xml:space="preserve"
       style="font-size:12px;font-style:normal;font-variant:normal;font-weight:normal;font-stretch:normal;text-align:start;line-height:100%;letter-spacing:0px;word-spacing:0px;writing-mode:lr-tb;text-anchor:start;fill:#000000;fill-opacity:1;stroke:none;font-family:Linux Libertine O;-inkscape-font-specification:Linux Libertine O"
       x="191.42857"
       y="98.076469"
       id="text3392"
       sodipodi:linespacing="100%"><tspan
         sodipodi:role="line"
         id="tspan3394"
         x="191.42857"
         y="98.076469">HTTP</tspan></text>
    <g
       id="g4305"
       transform="translate(0,-1.2135561)">
      <rect
         ry="10.101525"
         y="80.595436"
         x="262.63965"
         height="72.73098"
         width="107.07617"
         id="rect3396"
         style="fill:#439a44;fill-opacity:1;fill-rule:nonzero;stroke:none" />
      <text
         sodipodi:linespacing="100%"
         id="text3398"
         y="121.97489"
         x="269.48688"
         style="font-size:21.6119194px;font-style:normal;font-variant:normal;font-weight:normal;font-stretch:normal;text-align:start;line-height:100%;letter-spacing:0px;word-spacing:0px;writing-mode:lr-tb;text-anchor:start;fill:#000000;fill-opacity:1;stroke:none;font-family:Linux Libertine O;-inkscape-font-specification:Linux Libertine O"
         xml:space="preserve"><tspan
           y="121.97489"
           x="269.48688"
           id="tspan3400"
           sodipodi:role="line">Wordpress</tspan></text>
    </g>
    <path
       id="path3383-5"
       d="m 320.29058,160.10853 0,32.90279 4.11284,0 c 0.55695,0 1.03893,0.2035 1.44594,0.61051 0.407,0.407 0.6105,0.88898 0.6105,1.44593 0,0.55695 -0.2035,1.03892 -0.6105,1.44592 l -8.22571,8.22569 c -0.407,0.40701 -0.88897,0.61051 -1.44592,0.61051 -0.55695,0 -1.03893,-0.2035 -1.44592,-0.61051 l -8.22571,-8.22569 c -0.407,-0.407 -0.6105,-0.88897 -0.6105,-1.44592 0,-0.55695 0.2035,-1.03893 0.6105,-1.44593 0.40701,-0.40701 0.88898,-0.61051 1.44592,-0.61051 l 4.11287,0 0,-32.90279 c 0.0382,0.0678 8.22569,0 8.22569,0 z"
       inkscape:connector-curvature="0"
       sodipodi:nodetypes="ccsssssscssssccc" />
    <text
       xml:space="preserve"
       style="font-size:12px;font-style:normal;font-variant:normal;font-weight:normal;font-stretch:normal;text-align:start;line-height:100%;letter-spacing:0px;word-spacing:0px;writing-mode:lr-tb;text-anchor:start;fill:#000000;fill-opacity:1;stroke:none;font-family:Linux Libertine O;-inkscape-font-specification:Linux Libertine O"
       x="326.67517"
       y="181.98116"
       id="text3392-1"
       sodipodi:linespacing="100%"><tspan
         sodipodi:role="line"
         id="tspan3394-5"
         x="326.67517"
         y="181.98116">FTP</tspan></text>
    <g
       id="g4310"
       transform="translate(-1.5152283,0)">
      <rect
         ry="10.101525"
         y="212.42035"
         x="264.15488"
         height="72.73098"
         width="107.07617"
         id="rect3396-2"
         style="fill:#445a9a;fill-opacity:1;fill-rule:nonzero;stroke:none" />
      <text
         sodipodi:linespacing="100%"
         id="text3398-6"
         y="255.7881"
         x="289.05243"
         style="font-size:21.6119194px;font-style:normal;font-variant:normal;font-weight:normal;font-stretch:normal;text-align:start;line-height:100%;letter-spacing:0px;word-spacing:0px;writing-mode:lr-tb;text-anchor:start;fill:#000000;fill-opacity:1;stroke:none;font-family:Linux Libertine O;-inkscape-font-specification:Linux Libertine O"
         xml:space="preserve"><tspan
           y="255.7881"
           x="289.05243"
           id="tspan3400-6"
           sodipodi:role="line">Statics</tspan></text>
    </g>
    <path
       id="path3383-5-1"
       d="m 252.48678,248.20636 -86.81914,-62.3726 -2.37385,3.3586 c -0.32163,0.4547 -0.76583,0.73096 -1.33312,0.82841 -0.5673,0.0973 -1.07832,-0.0146 -1.53314,-0.33601 -0.4547,-0.32163 -0.73094,-0.76584 -0.8284,-1.33311 l -1.96945,-11.46497 c -0.0973,-0.56729 0.0145,-1.07832 0.33601,-1.53313 0.32162,-0.4547 0.76583,-0.73095 1.33311,-0.82839 l 11.46496,-1.96956 c 0.56728,-0.0973 1.07831,0.0146 1.53312,0.33601 0.45469,0.32163 0.73095,0.76584 0.8284,1.33312 0.0973,0.5673 -0.0146,1.07833 -0.336,1.53313 l -2.37387,3.35864 86.81914,62.3726 c -0.0775,-0.008 -4.74772,6.71723 -4.74772,6.71723 z"
       inkscape:connector-curvature="0"
       sodipodi:nodetypes="ccsssssscsssscccc" />
    <text
       xml:space="preserve"
       style="font-size:12px;font-style:normal;font-variant:normal;font-weight:normal;font-stretch:normal;text-align:start;line-height:100%;letter-spacing:0px;word-spacing:0px;writing-mode:lr-tb;text-anchor:start;fill:#000000;fill-opacity:1;stroke:none;font-family:Linux Libertine O;-inkscape-font-specification:Linux Libertine O"
       x="278.57205"
       y="31.896675"
       id="text3392-5"
       sodipodi:linespacing="100%"
       transform="matrix(0.79874567,0.60166881,-0.60166881,0.79874567,0,0)"><tspan
         sodipodi:role="line"
         id="tspan3394-2"
         x="278.57205"
         y="31.896675">HTTP</tspan></text>
  </g>
</svg>
